User Type,Username,Date,Text
,tpboss,2012-06-13T22:13Z,"Really bad quality...not good at all. 
A/7
V/7"
,GeniusAnomaly,2012-06-16T23:00Z,I smell a rat.
,GeniusAnomaly,2012-06-16T23:06Z,"As I thought 'tpboss' is bullshit, the quality is FINE.      

THANKS for the upload TvTeam!"
,vivatpb5776,2012-06-17T04:28Z,"For those that need quantitative data instead of ambiguous terms such as ""bad"" or ""fine,"" here is the mediainfo for the file. I played this on my 52"" TV and it matched other Tosh.0 episodes. Thank you uploader:

General
Complete name                    : F:QC[ www.TorrentDay.com ] - Tosh.0.S04E13.HDTV.x264-KILLERStosh.0.s04e13.hdtv.x264-killers.mp4
Format                           : MPEG-4
Format profile                   : Base Media
Codec ID                         : isom
File size                        : 134 MiB
Duration                         : 20mn 48s
Overall bit rate                 : 902 Kbps
Encoded date                     : UTC 2012-06-12 13:33:10
Tagged date                      : UTC 2012-06-12 13:33:10

Video
ID                               : 1
Format                           : AVC
Format/Info                      : Advanced Video Codec
Format profile                   : High@L3.1
Format settings, CABAC           : Yes
Format settings, ReFrames        : 5 frames
Codec ID                         : avc1
Codec ID/Info                    : Advanced Video Coding
Duration                         : 20mn 48s
Bit rate mode                    : Variable
Bit rate                         : 769 Kbps
Maximum bit rate                 : 3 516 Kbps
Width                            : 720 pixels
Height                           : 406 pixels
Display aspect ratio             : 16:9
Frame rate mode                  : Constant
Frame rate                       : 29.970 fps
Color space                      : YUV
Chroma subsampling               : 4:2:0
Bit depth                        : 8 bits
Scan type                        : Progressive
Bits/(Pixel*Frame)               : 0.088
Stream size                      : 115 MiB (85%)
Writing library                  : x264 core 124 r2197 69a0443
Encoding settings                : cabac=1 / ref=5 / deblock=1:0:0 / analyse=0x3:0x113 / me=umh / subme=8 / psy=1 / psy_rd=1.00:0.00 / mixed_ref=1 / me_range=16 / chroma_me=1 / trellis=1 / 8x8dct=1 / cqm=0 / deadzone=21,11 / fast_pskip=1 / chroma_qp_offset=-2 / threads=12 / sliced_threads=0 / nr=0 / decimate=1 / interlaced=0 / bluray_compat=0 / constrained_intra=0 / bframes=3 / b_pyramid=2 / b_adapt=2 / b_bias=0 / direct=3 / weightb=1 / open_gop=0 / weightp=2 / keyint=250 / keyint_min=25 / scenecut=40 / intra_refresh=0 / rc_lookahead=50 / rc=crf / mbtree=1 / crf=22.0 / qcomp=0.60 / qpmin=0 / qpmax=69 / qpstep=4 / ip_ratio=1.40 / aq=1:1.00
Encoded date                     : UTC 2012-06-13 13:14:25
Tagged date                      : UTC 2012-06-12 13:33:11
Matrix coefficients              : BT.709-5, BT.1361, IEC 61966-2-4 709, SMPTE RP177

Audio
ID                               : 2
Format                           : AAC
Format/Info                      : Advanced Audio Codec
Format profile                   : LC
Codec ID                         : 40
Duration                         : 20mn 48s
Bit rate mode                    : Variable
Bit rate                         : 128 Kbps
Maximum bit rate                 : 145 Kbps
Channel(s)                       : 2 channels
Channel positions                : Front: L R
Sampling rate                    : 48.0 KHz
Compression mode                 : Lossy
Stream size                      : 19.1 MiB (14%)
Encoded date                     : UTC 2012-06-12 13:33:11
Tagged date                      : UTC 2012-06-12 13:33:11"
